<?xml version="1.0" standalone="no"?>
<!DOCTYPE svg PUBLIC "-//W3C//DTD SVG 20010904//EN"
 "http://www.w3.org/TR/2001/REC-SVG-20010904/DTD/svg10.dtd">
<svg version="1.0" xmlns="http://www.w3.org/2000/svg"
 width="1200.000000pt" height="1200.000000pt" viewBox="0 0 1200.000000 1200.000000"
 preserveAspectRatio="xMidYMid meet">
<metadata>
Created by potrace 1.11, written by Peter Selinger 2001-2013
</metadata>
<g transform="translate(0.000000,1200.000000) scale(0.100000,-0.100000)"
fill="#000000" stroke="none">
<path d="M8830 11038 c-131 -11 -155 -17 -299 -66 -258 -88 -495 -298 -630
-557 -31 -59 -92 -229 -97 -270 -1 -11 -7 -51 -14 -90 -16 -100 -14 -240 5
-360 36 -220 156 -448 326 -615 342 -337 862 -426 1291 -221 108 52 129 65
213 131 287 225 446 548 445 905 0 55 -2 111 -4 125 -2 14 -7 45 -11 70 -50
342 -293 669 -620 833 -183 92 -403 134 -605 115z"/>
<path d="M5205 9745 c-90 -29 -116 -41 -195 -90 -52 -32 -205 -152 -325 -253
-11 -10 -119 -98 -240 -197 -121 -99 -229 -187 -240 -197 -11 -9 -54 -44 -95
-78 -41 -34 -84 -69 -95 -78 -11 -10 -70 -57 -130 -107 -61 -49 -119 -97 -130
-107 -11 -9 -54 -44 -95 -78 -41 -34 -84 -69 -95 -78 -11 -10 -45 -37 -75 -62
-30 -25 -57 -47 -60 -50 -3 -3 -29 -24 -59 -48 -126 -98 -179 -161 -220 -261
-27 -64 -30 -80 -34 -167 -7 -142 42 -264 149 -372 83 -84 158 -123 270 -141
116 -20 248 6 339 66 35 23 211 163 270 215 18 15 74 61 209 171 21 18 80 66
130 108 50 41 233 192 406 334 173 142 332 274 354 293 44 39 18 40 271 -13
170 -36 245 -51 298 -61 16 -2 66 -13 110 -23 45 -10 98 -22 117 -25 19 -3 44
-8 55 -10 181 -39 231 -50 233 -52 2 -1 -16 -33 -40 -71 -25 -37 -224 -345
-443 -683 -219 -338 -430 -664 -469 -725 -40 -60 -102 -157 -140 -215 -37 -58
-118 -183 -179 -277 -62 -95 -166 -257 -232 -359 -102 -158 -176 -259 -347
-475 -15 -19 -66 -83 -113 -144 -48 -60 -100 -127 -117 -148 -17 -21 -69 -86
-115 -145 -46 -59 -89 -114 -96 -122 -33 -41 -136 -170 -163 -206 -17 -22 -38
-49 -47 -60 -9 -10 -77 -97 -152 -191 l-136 -173 -87 5 c-48 2 -132 7 -187 10
-55 4 -129 8 -165 10 -84 5 -222 15 -280 20 -25 3 -76 7 -115 10 -38 3 -83 7
-100 9 -16 3 -70 7 -120 11 -49 4 -101 8 -115 11 -14 2 -56 6 -94 9 -38 3 -87
8 -110 11 -23 2 -68 7 -101 9 -33 3 -76 8 -95 11 -19 2 -66 7 -105 10 -38 2
-77 7 -85 9 -8 2 -55 7 -105 11 -49 3 -98 8 -109 10 -10 2 -51 6 -90 9 -39 3
-82 8 -96 11 -13 3 -74 7 -135 9 -98 3 -141 -2 -241 -28 -57 -14 -159 -81
-225 -148 -126 -124 -180 -264 -174 -448 7 -226 134 -426 330 -520 95 -46 141
-55 315 -66 52 -3 125 -7 163 -10 126 -9 202 -14 292 -20 50 -3 117 -7 150
-10 33 -3 105 -7 160 -11 104 -5 179 -10 305 -19 116 -8 218 -15 300 -20 141
-9 245 -15 305 -20 33 -2 105 -7 160 -10 55 -3 123 -8 150 -10 28 -3 93 -7
145 -10 52 -3 118 -8 145 -10 28 -3 120 -7 205 -10 175 -5 245 6 345 55 91 44
157 110 326 326 85 108 159 202 164 208 6 6 26 31 45 56 19 25 40 52 47 60 7
8 85 107 174 220 356 452 402 510 410 510 5 0 99 -64 210 -142 111 -79 225
-159 253 -179 90 -62 971 -683 981 -692 6 -4 53 -37 105 -74 52 -36 96 -66 98
-68 4 -3 -24 -61 -86 -180 -32 -60 -104 -200 -161 -310 -57 -110 -123 -236
-146 -280 -23 -44 -76 -145 -117 -225 -169 -326 -209 -403 -296 -570 -49 -96
-98 -200 -107 -230 -19 -63 -27 -217 -14 -264 5 -17 12 -44 15 -60 2 -16 14
-50 26 -75 149 -328 553 -447 854 -250 96 63 159 142 246 309 39 74 106 205
150 290 44 85 105 202 135 260 141 270 217 415 398 765 43 83 97 186 120 230
268 507 293 570 300 745 6 176 -46 318 -159 433 -34 35 -173 142 -314 242
-231 165 -502 358 -561 402 -13 10 -34 25 -47 33 -12 8 -59 42 -104 75 -46 33
-101 73 -124 89 -286 200 -485 350 -479 359 11 18 159 247 255 392 46 72 123
189 170 260 47 72 127 195 180 275 52 80 119 183 150 230 57 88 199 307 367
563 53 81 110 167 127 192 l31 44 54 -97 c30 -53 68 -121 85 -152 17 -30 92
-163 166 -295 74 -132 146 -260 160 -285 14 -25 44 -77 67 -117 22 -40 41 -75
41 -78 0 -7 26 -39 79 -97 52 -57 116 -101 185 -127 73 -27 102 -30 319 -36
202 -5 534 -13 802 -20 88 -2 288 -7 445 -11 157 -3 335 -8 395 -9 274 -8 473
-6 520 5 263 60 433 337 371 603 -32 133 -141 272 -260 330 -94 46 -165 55
-501 62 -170 4 -366 8 -435 10 -69 2 -246 6 -395 10 -148 3 -326 8 -395 10
-69 2 -143 4 -165 4 -38 1 -41 4 -71 59 -17 31 -52 95 -79 142 -26 47 -61 110
-78 140 -17 30 -41 72 -54 92 -13 21 -23 40 -23 42 0 2 -24 46 -54 98 -29 51
-64 113 -78 138 -78 141 -380 677 -388 690 -5 8 -28 49 -51 90 -77 138 -189
300 -288 415 -78 90 -281 284 -354 339 -146 109 -224 140 -493 197 -132 28
-250 53 -264 55 -14 2 -54 11 -90 19 -36 8 -78 16 -95 19 -16 3 -41 8 -55 11
-83 18 -356 75 -390 82 -14 2 -45 9 -70 14 -36 8 -460 97 -543 113 -12 3 -78
17 -147 32 -167 36 -273 39 -365 9z"/>
</g>
</svg>
